<svg width="189" height="32" viewBox="0 0 189 32" fill="none" xmlns="http://www.w3.org/2000/svg">
<mask id="mask0_1101_4985" style="mask-type:luminance" maskUnits="userSpaceOnUse" x="0" y="0" width="189" height="32">
<path d="M153.884 20.3189V31.9986C151.822 31.656 150.254 29.8539 150.254 27.6794V22.9998C151.822 22.7883 153.157 21.7606 153.884 20.3189ZM152.546 4.95961H148.729C148.564 4.95961 148.413 5.02813 148.307 5.13805C148.198 5.24558 148.13 5.3975 148.13 5.56431C148.13 5.89793 148.399 6.166 148.729 6.166H152.546V7.36048H148.729C148.564 7.36048 148.413 7.42871 148.307 7.53892C148.198 7.64645 148.13 7.79837 148.13 7.96518C148.13 8.2988 148.399 8.56955 148.729 8.56955H152.546V9.6571H148.797C148.632 9.6571 148.484 9.7256 148.375 9.83552C148.269 9.94305 148.198 10.092 148.198 10.2618C148.198 10.5921 148.467 10.8635 148.797 10.8635H152.546V12.1086H148.797C148.632 12.1086 148.484 12.1741 148.375 12.2844C148.269 12.3946 148.198 12.5465 148.198 12.7103C148.198 13.0436 148.467 13.315 148.797 13.315H152.546V14.4082H148.797C148.632 14.4082 148.484 14.4797 148.375 14.5869C148.269 14.6971 148.198 14.8461 148.198 15.0129C148.198 15.3462 148.467 15.6146 148.797 15.6146H152.546V17.8069C152.546 19.4182 151.252 20.7231 149.657 20.7231C148.059 20.7231 146.762 19.4182 146.762 17.8069V8.44773C146.762 8.3673 146.768 8.28688 146.78 8.20914C146.768 8.17071 146.762 8.1287 146.762 8.0873V3.62216C146.762 2.36811 147.769 1.35206 149.013 1.35206H150.295C151.538 1.35206 152.546 2.36811 152.546 3.62216V4.95961ZM150.762 0.235027H148.546C146.969 0.235027 145.69 1.52513 145.69 3.11875V17.8189C145.69 20.2257 147.471 22.1827 149.657 22.1827C151.807 22.1827 153.565 20.2882 153.618 17.932V3.11875C153.618 1.52513 152.339 0.235027 150.762 0.235027ZM148.904 22.9789V27.6794C148.904 29.8539 147.333 31.656 145.271 31.9986V19.9793C145.93 21.5462 147.285 22.7019 148.904 22.9789ZM173.213 15.1052H169.063V7.72985H173.213C175.478 7.72985 176.94 9.15935 176.94 11.3967C176.94 13.6307 175.478 15.1052 173.213 15.1052ZM180.29 20.3416C183.359 18.4384 185.199 15.2479 185.199 11.3967C185.199 4.87621 180.101 0.592781 173.165 0.592781H160.946V31.9977H169.063V22.2453H172.412L179.442 31.9977H188.501L180.29 20.3416ZM123.726 22.8142L126.464 15.5342L129.152 22.8142H123.726ZM127.737 0.0235329H125.144L110.987 31.9977H119.715L120.849 29.3824H132.032L133.163 31.9977H141.892L127.737 0.0235329ZM81.6952 25.0989H75.4659V19.579H81.6952C83.6299 19.579 84.8084 20.4845 84.8084 22.3403C84.8084 24.1961 83.6299 25.0989 81.6952 25.0989ZM75.4659 7.49453H78.39C80.3247 7.49453 81.5062 8.58743 81.5062 10.2528C81.5062 11.918 80.3247 13.0138 78.39 13.0138H75.4659V7.49453ZM87.5465 15.1529C88.8195 13.7258 89.4309 11.9656 89.4309 9.87157C89.4309 4.39932 84.9029 0.592781 78.9099 0.592781H67.6799V31.9977H82.2121C88.2052 31.9977 92.7361 28.0955 92.7361 22.6712C92.7361 19.055 90.8015 16.4871 87.5465 15.1529ZM53.529 0V18.7009C53.529 22.2694 51.2163 24.4588 47.8668 24.4588C44.5173 24.4588 42.2045 22.2694 42.2045 18.7009V0H34.0907V18.0813C34.0907 26.4575 39.8948 31.9771 47.8668 31.9771C55.7473 31.9771 61.6458 26.3619 61.6458 18.0813V0H53.529ZM19.9275 17.9112L11.2967 22.9334C10.0473 23.6629 8.48483 22.7517 8.48483 21.2977V11.2477C8.48483 9.79412 10.0473 8.88262 11.2967 9.61211L15.6121 12.1235L19.9275 14.6346C21.1769 15.3641 21.1769 17.1814 19.9275 17.9112ZM11.5508 0.0235329H0.500977V31.9977H11.5508C21.2537 32.1436 28.9894 25.361 28.8447 15.9154C28.9894 6.32091 21.2537 -0.0714874 11.5508 0.0235329Z" fill="white"/>
</mask>
<g mask="url(#mask0_1101_4985)">
<path d="M153.884 20.3189V31.9986C151.822 31.656 150.254 29.8539 150.254 27.6794V22.9998C151.822 22.7883 153.157 21.7606 153.884 20.3189ZM152.546 4.95961H148.729C148.564 4.95961 148.413 5.02813 148.307 5.13805C148.198 5.24558 148.13 5.3975 148.13 5.56431C148.13 5.89793 148.399 6.166 148.729 6.166H152.546V7.36048H148.729C148.564 7.36048 148.413 7.4287 148.307 7.53892C148.198 7.64645 148.13 7.79837 148.13 7.96518C148.13 8.2988 148.399 8.56955 148.729 8.56955H152.546V9.6571H148.797C148.632 9.6571 148.484 9.7256 148.375 9.83552C148.269 9.94305 148.198 10.092 148.198 10.2618C148.198 10.5921 148.467 10.8635 148.797 10.8635H152.546V12.1086H148.797C148.632 12.1086 148.484 12.1741 148.375 12.2844C148.269 12.3946 148.198 12.5465 148.198 12.7103C148.198 13.0436 148.467 13.315 148.797 13.315H152.546V14.4082H148.797C148.632 14.4082 148.484 14.4797 148.375 14.5869C148.269 14.6971 148.198 14.8461 148.198 15.0129C148.198 15.3462 148.467 15.6146 148.797 15.6146H152.546V17.8069C152.546 19.4182 151.252 20.7231 149.657 20.7231C148.059 20.7231 146.762 19.4182 146.762 17.8069V8.44773C146.762 8.3673 146.768 8.28688 146.78 8.20913C146.768 8.17071 146.762 8.1287 146.762 8.08729V3.62216C146.762 2.36811 147.769 1.35205 149.013 1.35205H150.295C151.538 1.35205 152.546 2.36811 152.546 3.62216V4.95961ZM150.762 0.235025H148.546C146.969 0.235025 145.69 1.52512 145.69 3.11875V17.8189C145.69 20.2257 147.471 22.1827 149.657 22.1827C151.807 22.1827 153.565 20.2882 153.618 17.932V3.11875C153.618 1.52512 152.339 0.235025 150.762 0.235025ZM148.904 22.9789V27.6794C148.904 29.8539 147.333 31.656 145.271 31.9986V19.9793C145.93 21.5462 147.285 22.7019 148.904 22.9789ZM173.213 15.1052H169.063V7.72985H173.213C175.478 7.72985 176.94 9.15935 176.94 11.3967C176.94 13.6307 175.478 15.1052 173.213 15.1052ZM180.29 20.3416C183.359 18.4384 185.199 15.2479 185.199 11.3967C185.199 4.87621 180.101 0.592779 173.165 0.592779H160.946V31.9977H169.063V22.2453H172.412L179.442 31.9977H188.501L180.29 20.3416ZM123.726 22.8142L126.464 15.5342L129.152 22.8142H123.726ZM127.737 0.023531H125.144L110.987 31.9977H119.715L120.849 29.3824H132.032L133.163 31.9977H141.892L127.737 0.023531ZM81.6952 25.0989H75.4659V19.579H81.6952C83.6299 19.579 84.8084 20.4845 84.8084 22.3403C84.8084 24.1961 83.6299 25.0989 81.6952 25.0989ZM75.4659 7.49453H78.39C80.3247 7.49453 81.5062 8.58743 81.5062 10.2528C81.5062 11.918 80.3247 13.0138 78.39 13.0138H75.4659V7.49453ZM87.5465 15.1529C88.8195 13.7258 89.431 11.9656 89.431 9.87157C89.431 4.39932 84.9029 0.592779 78.9099 0.592779H67.6799V31.9977H82.2121C88.2052 31.9977 92.7362 28.0955 92.7362 22.6712C92.7362 19.055 90.8015 16.4871 87.5465 15.1529ZM53.529 0V18.7009C53.529 22.2694 51.2163 24.4588 47.8668 24.4588C44.5173 24.4588 42.2046 22.2694 42.2046 18.7009V0H34.0907V18.0813C34.0907 26.4575 39.8948 31.9771 47.8668 31.9771C55.7473 31.9771 61.6458 26.3619 61.6458 18.0813V0H53.529ZM19.9275 17.9112L11.2967 22.9334C10.0473 23.6629 8.48483 22.7517 8.48483 21.2977V11.2477C8.48483 9.79412 10.0473 8.88262 11.2967 9.61211L15.6121 12.1235L19.9275 14.6346C21.1769 15.3641 21.1769 17.1814 19.9275 17.9112ZM11.5508 0.023531H0.500977V31.9977H11.5508C21.2537 32.1436 28.9894 25.361 28.8447 15.9154C28.9894 6.32091 21.2537 -0.0714912 11.5508 0.023531Z" fill="url(#paint0_linear_1101_4985)"/>
</g>
<defs>
<linearGradient id="paint0_linear_1101_4985" x1="94.501" y1="-4.26229" x2="94.501" y2="40.396" gradientUnits="userSpaceOnUse">
<stop stop-color="#5869BC"/>
<stop offset="0.145059" stop-color="#5869BC"/>
<stop offset="0.41341" stop-color="#82B1E3"/>
<stop offset="0.646914" stop-color="#7D72C0"/>
<stop offset="0.884114" stop-color="#8046A8"/>
<stop offset="1" stop-color="#8046A8"/>
</linearGradient>
</defs>
</svg>
