<svg width="144" height="24" viewBox="0 0 144 24" fill="none" xmlns="http://www.w3.org/2000/svg">
<path d="M9.25999 0.0176445H0.902344V23.9983H9.25999C16.5989 24.1077 22.4499 19.0208 22.3405 11.9366C22.4499 4.74067 16.5989 -0.053622 9.25999 0.0176445ZM15.5958 13.4334L9.06786 17.2C8.85243 17.3246 8.608 17.3903 8.35914 17.3904C8.11028 17.3906 7.86576 17.3252 7.65019 17.2008C7.43462 17.0765 7.25559 16.8976 7.1311 16.6821C7.00661 16.4666 6.94106 16.2222 6.94103 15.9733V8.43581C6.94106 8.18695 7.00661 7.94248 7.1311 7.727C7.25559 7.51151 7.43462 7.3326 7.65019 7.20827C7.86576 7.08393 8.11028 7.01855 8.35914 7.01869C8.608 7.01883 8.85243 7.0845 9.06786 7.20908L12.3318 9.09262L15.5958 10.9759C15.8113 11.1006 15.9902 11.2798 16.1146 11.4954C16.239 11.7111 16.3045 11.9557 16.3045 12.2047C16.3045 12.4536 16.239 12.6982 16.1146 12.9139C15.9902 13.1296 15.8113 13.3087 15.5958 13.4334ZM41.0108 0V14.0256C41.0108 16.702 39.2615 18.3441 36.7281 18.3441C34.1946 18.3441 32.4454 16.702 32.4454 14.0256V0H26.3084V13.5607C26.3084 19.8429 30.6983 23.9826 36.7281 23.9826C42.6886 23.9826 47.15 19.7712 47.15 13.5607V0H41.0108ZM66.7403 11.3647C67.7032 10.2943 68.1656 8.97421 68.1656 7.40367C68.1656 3.29948 64.7408 0.444576 60.2079 0.444576H51.7151V23.9983H62.7067C67.2396 23.9983 70.6667 21.0716 70.6667 17.0034C70.6656 14.2913 69.2022 12.3655 66.7403 11.3647ZM57.603 5.6209H59.8147C61.278 5.6209 62.1716 6.44057 62.1716 7.68963C62.1716 8.93869 61.278 9.76038 59.8147 9.76038H57.603V5.6209ZM62.3146 18.8242H57.603V14.6843H62.3146C63.7779 14.6843 64.6693 15.3634 64.6693 16.7552C64.6693 18.147 63.779 18.8242 62.3146 18.8242ZM97.1393 0.0176445H95.1777L84.4699 23.9983H91.0715L91.9294 22.0368H100.388L101.243 23.9983H107.845L97.1393 0.0176445ZM94.1054 17.1107L96.1764 11.6506L98.2094 17.1107H94.1054ZM136.888 15.2564C138.041 14.5624 138.991 13.577 139.643 12.3994C140.295 11.2218 140.625 9.89344 140.601 8.54773C140.601 3.65738 136.745 0.444801 131.499 0.444801H122.257V23.9985H128.396V16.6842H130.93L136.247 23.9985H143.098L136.888 15.2564ZM131.535 11.3298H128.396V5.79827H131.535C133.248 5.79827 134.354 6.87062 134.354 8.5484C134.354 10.2262 133.248 11.3298 131.535 11.3298ZM113.149 17.2351V20.7604C113.148 21.5384 112.872 22.291 112.369 22.8842C111.866 23.4775 111.168 23.8728 110.401 23.9998V14.9854C110.634 15.5603 111.008 16.0675 111.488 16.4605C111.968 16.8534 112.539 17.1194 113.149 17.2342L113.149 17.2351ZM114.554 0.177161H112.878C112.594 0.177278 112.313 0.233315 112.051 0.342077C111.789 0.450839 111.55 0.610197 111.35 0.81104C111.149 1.01188 110.99 1.25028 110.882 1.51261C110.773 1.77495 110.717 2.05608 110.718 2.33995V13.365C110.718 15.1702 112.065 16.6379 113.718 16.6379C115.344 16.6379 116.674 15.2171 116.714 13.4499V2.33995C116.714 2.05602 116.659 1.77481 116.55 1.51239C116.442 1.24996 116.283 1.01147 116.082 0.810535C115.882 0.609601 115.643 0.450165 115.381 0.341334C115.119 0.232502 114.838 0.176414 114.554 0.176268L114.554 0.177161ZM115.903 3.7206H113.018C112.898 3.72159 112.783 3.76969 112.698 3.85453C112.613 3.93937 112.565 4.05414 112.564 4.17412C112.564 4.23354 112.576 4.29237 112.599 4.34723C112.622 4.40208 112.655 4.4519 112.698 4.49382C112.74 4.53573 112.79 4.56893 112.845 4.59151C112.9 4.61409 112.958 4.6256 113.018 4.62539H115.904V5.52125H113.018C112.898 5.52225 112.783 5.57035 112.698 5.65518C112.613 5.74002 112.565 5.85479 112.564 5.97477C112.564 6.09499 112.612 6.21025 112.697 6.29524C112.782 6.38023 112.898 6.428 113.018 6.42806H115.904V7.24371H113.069C112.949 7.24371 112.834 7.29137 112.749 7.37622C112.665 7.46106 112.617 7.57612 112.617 7.69611C112.617 7.81609 112.665 7.93116 112.749 8.01601C112.834 8.10085 112.949 8.14851 113.069 8.14851H115.904V9.08235H113.069C113.01 9.082 112.951 9.09348 112.896 9.11611C112.841 9.13874 112.792 9.17207 112.75 9.21415C112.665 9.29926 112.617 9.41379 112.616 9.53362C112.616 9.65387 112.664 9.76915 112.749 9.85418C112.834 9.9392 112.949 9.98702 113.069 9.98714H115.904V10.807H113.069C112.949 10.8081 112.835 10.8563 112.75 10.9411C112.665 11.0259 112.617 11.1406 112.616 11.2606C112.616 11.32 112.628 11.3788 112.651 11.4336C112.673 11.4885 112.707 11.5383 112.749 11.5802C112.791 11.6221 112.841 11.6553 112.896 11.6779C112.951 11.7005 113.01 11.712 113.069 11.7118H115.904V13.3561C115.904 13.9362 115.674 14.4925 115.264 14.9026C114.854 15.3128 114.297 15.5432 113.717 15.5432C113.137 15.5432 112.581 15.3128 112.171 14.9026C111.76 14.4925 111.53 13.9362 111.53 13.3561V6.33668C111.53 6.27686 111.534 6.21711 111.543 6.15796C111.534 6.12833 111.53 6.09754 111.53 6.06659V2.71773C111.53 2.49415 111.574 2.27274 111.659 2.06616C111.745 1.85959 111.87 1.67189 112.028 1.51378C112.187 1.35567 112.374 1.23025 112.581 1.1447C112.787 1.05914 113.009 1.01512 113.232 1.01515H114.202C114.426 1.01512 114.647 1.05914 114.853 1.1447C115.06 1.23025 115.248 1.35567 115.406 1.51378C115.564 1.67189 115.689 1.85959 115.775 2.06616C115.86 2.27274 115.904 2.49415 115.904 2.71773L115.903 3.7206ZM116.915 15.2401V23.9998C116.148 23.8727 115.451 23.4772 114.948 22.884C114.445 22.2907 114.169 21.5382 114.17 20.7604V17.2501C114.756 17.1628 115.312 16.9341 115.791 16.5838C116.269 16.2336 116.655 15.7721 116.915 15.2394L116.915 15.2401Z" fill="white"/>
</svg>
