<svg width="24" height="24" viewBox="0 0 24 24" fill="none" xmlns="http://www.w3.org/2000/svg">
<path d="M8.8 20V15.9L10.7 16.1C11.2531 16.0693 11.7766 15.8399 12.1742 15.4541C12.5717 15.0683 12.8167 14.552 12.864 14V8.3C12.8706 6.85934 12.3047 5.47506 11.2907 4.45167C10.2767 3.42829 8.89766 2.84963 7.457 2.843C6.01634 2.83637 4.63206 3.40231 3.60867 4.41632C2.58529 5.43033 2.00663 6.80934 2 8.25C2 11.05 2.656 11.304 3 12.8C3.23248 13.7035 3.24243 14.6498 3.029 15.558L2 20" stroke="#2B2C2B" stroke-opacity="0.56" stroke-width="1.5" stroke-linecap="round" stroke-linejoin="round"/>
<path d="M19.7998 17.8C21.2056 16.394 21.9956 14.4874 21.9962 12.4991C21.9968 10.5109 21.2078 8.60377 19.8028 7.197" stroke="#2B2C2B" stroke-opacity="0.56" stroke-width="1.5" stroke-linecap="round" stroke-linejoin="round"/>
<path d="M16.9996 15C17.3268 14.6729 17.5859 14.2842 17.7619 13.8563C17.9378 13.4284 18.0273 12.9699 18.0249 12.5073C18.0226 12.0446 17.9286 11.5871 17.7483 11.161C17.568 10.7349 17.3051 10.3488 16.9746 10.025" stroke="#2B2C2B" stroke-opacity="0.56" stroke-width="1.5" stroke-linecap="round" stroke-linejoin="round"/>
</svg>
