<?xml version="1.0" encoding="UTF-8"?>
<svg version="1.1" xmlns="http://www.w3.org/2000/svg" width="64" height="64">
<path d="M0 0 C0.495 0.495 0.99 0.99 1.5 1.5 C2.11875 1.190625 2.7375 0.88125 3.375 0.5625 C11.35551312 -3.42775656 19.99400968 -0.95224225 28.5 0.5 C28.5 1.16 28.5 1.82 28.5 2.5 C29.16 2.83 29.82 3.16 30.5 3.5 C30.5 4.82 30.5 6.14 30.5 7.5 C31.16 7.5 31.82 7.5 32.5 7.5 C32.5 9.15 32.5 10.8 32.5 12.5 C33.16 12.5 33.82 12.5 34.5 12.5 C34.5 14.15 34.5 15.8 34.5 17.5 C33.75838623 17.52505615 33.01677246 17.5501123 32.25268555 17.57592773 C28.89744672 17.69186132 25.54249056 17.81459985 22.1875 17.9375 C21.02025391 17.97681641 19.85300781 18.01613281 18.65039062 18.05664062 C17.53212891 18.09853516 16.41386719 18.14042969 15.26171875 18.18359375 C14.23006592 18.22025146 13.19841309 18.25690918 12.13549805 18.29467773 C9.39251742 18.40161242 9.39251742 18.40161242 6.5 19.5 C4.5625 19.6328125 4.5625 19.6328125 2.5 19.625 C1.4790625 19.62886719 1.4790625 19.62886719 0.4375 19.6328125 C-1.5 19.5 -1.5 19.5 -4.5 18.5 C-6.41765594 18.35060226 -8.33946522 18.25189717 -10.26171875 18.18359375 C-11.93911133 18.12075195 -11.93911133 18.12075195 -13.65039062 18.05664062 C-14.81763672 18.01732422 -15.98488281 17.97800781 -17.1875 17.9375 C-18.95577148 17.87272461 -18.95577148 17.87272461 -20.75976562 17.80664062 C-23.67305883 17.70048824 -26.58643757 17.59843758 -29.5 17.5 C-29.5 15.85 -29.5 14.2 -29.5 12.5 C-28.84 12.5 -28.18 12.5 -27.5 12.5 C-27.5 10.85 -27.5 9.2 -27.5 7.5 C-26.84 7.5 -26.18 7.5 -25.5 7.5 C-25.5 6.18 -25.5 4.86 -25.5 3.5 C-24.84 3.17 -24.18 2.84 -23.5 2.5 C-23.5 1.84 -23.5 1.18 -23.5 0.5 C-4.55696203 -2.73417722 -4.55696203 -2.73417722 0 0 Z M-21.5 3.5 C-17.5 4.5 -17.5 4.5 -17.5 4.5 Z M-11.5 5.5 C-8.53 5.5 -5.56 5.5 -2.5 5.5 C-6.51009099 2.82660601 -7.48990901 2.82660601 -11.5 5.5 Z M7.5 5.5 C10.47 5.5 13.44 5.5 16.5 5.5 C12.48990901 2.82660601 11.51009099 2.82660601 7.5 5.5 Z M22.5 3.5 C26.5 4.5 26.5 4.5 26.5 4.5 Z M16.5 5.5 C18.89763185 7.89763185 19.83273498 7.84280586 23.125 8.125 C24.35089844 8.23714844 24.35089844 8.23714844 25.6015625 8.3515625 C26.22804688 8.40054688 26.85453125 8.44953125 27.5 8.5 C27.83 7.84 28.16 7.18 28.5 6.5 C24.54 6.17 20.58 5.84 16.5 5.5 Z M-19.1875 6 C-20.39986328 6.13921875 -20.39986328 6.13921875 -21.63671875 6.28125 C-22.55904297 6.38953125 -22.55904297 6.38953125 -23.5 6.5 C-23.17 7.16 -22.84 7.82 -22.5 8.5 C-21.04077307 8.38590407 -19.58259402 8.25834456 -18.125 8.125 C-17.31289063 8.05539063 -16.50078125 7.98578125 -15.6640625 7.9140625 C-13.29665809 7.67107412 -13.29665809 7.67107412 -11.5 5.5 C-14.12834278 5.5 -16.58186701 5.69789762 -19.1875 6 Z M-11.0625 8.4375 C-15.81675485 9.90699695 -20.55285623 10.16549562 -25.5 10.5 C-25.5 11.16 -25.5 11.82 -25.5 12.5 C-12.135 12.995 -12.135 12.995 1.5 13.5 C1.5 12.51 1.5 11.52 1.5 10.5 C-3.02378087 8.03248316 -5.95928638 6.57047063 -11.0625 8.4375 Z M3.5 10.5 C3.5 11.49 3.5 12.48 3.5 13.5 C12.41 13.17 21.32 12.84 30.5 12.5 C30.5 11.84 30.5 11.18 30.5 10.5 C29.77554688 10.45101562 29.05109375 10.40203125 28.3046875 10.3515625 C23.03832408 9.94429706 18.4885756 9.32508863 13.5 7.5 C9.16905042 7.5 7.22965139 8.46564469 3.5 10.5 Z M-27.5 14.5 C-27.5 14.83 -27.5 15.16 -27.5 15.5 C-19.58 15.5 -11.66 15.5 -3.5 15.5 C-3.5 15.17 -3.5 14.84 -3.5 14.5 C-11.42 14.5 -19.34 14.5 -27.5 14.5 Z M8.5 14.5 C8.5 14.83 8.5 15.16 8.5 15.5 C16.42 15.5 24.34 15.5 32.5 15.5 C32.5 15.17 32.5 14.84 32.5 14.5 C24.58 14.5 16.66 14.5 8.5 14.5 Z M0.5 16.5 C4.5 17.5 4.5 17.5 4.5 17.5 Z " fill="#000000" transform="translate(29.5,44.5)"/>
<path d="M0 0 C3.61208721 2.97466005 4.03223722 4.82237222 4.5 9.5 C4.41702627 13.57325605 3.03894742 16.23763884 1.0703125 19.734375 C0.05076102 21.90829468 -0.23460645 23.61820618 -0.4375 26 C-1.07092875 31.42938931 -1.07092875 31.42938931 -3.875 33.75 C-6.875 34.25 -6.875 34.25 -9.875 33.75 C-12.70356951 30.8058399 -13.34446069 28.29707128 -13.875 24.3125 C-14.39565598 20.97677189 -14.73933858 18.97436311 -16.5 16.0625 C-18.51807034 12.66847261 -18.45233975 9.60413294 -17.875 5.75 C-16.63967542 2.90875347 -15.6194561 1.32902141 -13.1875 -0.5625 C-8.49267132 -1.95825988 -4.42976848 -1.9259863 0 0 Z M-13.875 3.75 C-15.80010747 6.28764166 -15.89204361 7.48298337 -15.6875 10.6875 C-14.84849987 13.84988512 -13.57859022 15.98166589 -11.875 18.75 C-11.1875 21.5625 -11.1875 21.5625 -10.875 23.75 C-10.545 23.75 -10.215 23.75 -9.875 23.75 C-9.6353057 18.11718401 -10.48970179 13.20461169 -11.875 7.75 C-10.9675 8.12125 -10.06 8.4925 -9.125 8.875 C-6.0046813 10.07506684 -6.0046813 10.07506684 -3.671875 8.8046875 C-2.78242187 8.28261719 -2.78242187 8.28261719 -1.875 7.75 C-2.019375 8.31847656 -2.16375 8.88695312 -2.3125 9.47265625 C-3.49045505 14.37262205 -4.08927527 18.7145312 -3.875 23.75 C-3.545 23.75 -3.215 23.75 -2.875 23.75 C-2.606875 22.698125 -2.33875 21.64625 -2.0625 20.5625 C-0.875 16.75 -0.875 16.75 0.8125 14.1875 C2.37645322 11.76180396 2.37645322 11.76180396 2.0625 8.6875 C0.96745093 5.25634623 0.02898503 3.86912421 -2.875 1.75 C-7.58896024 0.2455446 -10.01940992 0.64410799 -13.875 3.75 Z M-7.875 12.75 C-7.875 15.06 -7.875 17.37 -7.875 19.75 C-7.215 19.75 -6.555 19.75 -5.875 19.75 C-5.875 17.44 -5.875 15.13 -5.875 12.75 C-6.535 12.75 -7.195 12.75 -7.875 12.75 Z M-10.875 25.75 C-10.545 26.74 -10.215 27.73 -9.875 28.75 C-7.895 28.75 -5.915 28.75 -3.875 28.75 C-3.545 27.76 -3.215 26.77 -2.875 25.75 C-5.515 25.75 -8.155 25.75 -10.875 25.75 Z " fill="#000000" transform="translate(38.875,8.25)"/>
<path d="M0 0 C2.475 0.495 2.475 0.495 5 1 C5 1.99 5 2.98 5 4 C2.525 3.01 2.525 3.01 0 2 C0 1.34 0 0.68 0 0 Z " fill="#000000" transform="translate(43,24)"/>
<path d="M0 0 C-0.33 0.99 -0.66 1.98 -1 3 C-3.0625 3.6875 -3.0625 3.6875 -5 4 C-5 3.01 -5 2.02 -5 1 C-3 0 -3 0 0 0 Z " fill="#000000" transform="translate(21,24)"/>
<path d="M0 0 C0 0.99 0 1.98 0 3 C-1.65 3.33 -3.3 3.66 -5 4 C-4.67 3.01 -4.34 2.02 -4 1 C-2 0 -2 0 0 0 Z " fill="#000000" transform="translate(48,8)"/>
<path d="M0 0 C2.475 0.99 2.475 0.99 5 2 C5 2.66 5 3.32 5 4 C3.35 3.67 1.7 3.34 0 3 C0 2.01 0 1.02 0 0 Z " fill="#000000" transform="translate(16,8)"/>
<path d="M0 0 C0.99 0 1.98 0 3 0 C2.34 1.65 1.68 3.3 1 5 C0.34 5 -0.32 5 -1 5 C-0.67 3.35 -0.34 1.7 0 0 Z " fill="#000000" transform="translate(39,2)"/>
<path d="M0 0 C0.99 0 1.98 0 3 0 C3.33 1.65 3.66 3.3 4 5 C3.01 4.67 2.02 4.34 1 4 C0.3125 1.9375 0.3125 1.9375 0 0 Z " fill="#000000" transform="translate(22,2)"/>
<path d="M0 0 C1.65 0 3.3 0 5 0 C5 0.66 5 1.32 5 2 C3.35 2 1.7 2 0 2 C0 1.34 0 0.68 0 0 Z " fill="#000000" transform="translate(45,17)"/>
<path d="M0 0 C1.65 0 3.3 0 5 0 C5 0.66 5 1.32 5 2 C3.35 2 1.7 2 0 2 C0 1.34 0 0.68 0 0 Z " fill="#000000" transform="translate(14,17)"/>
<path d="M0 0 C0.66 0 1.32 0 2 0 C2 1.65 2 3.3 2 5 C1.34 5 0.68 5 0 5 C0 3.35 0 1.7 0 0 Z " fill="#000000" transform="translate(31,0)"/>
</svg>
