<svg width="20" height="20" viewBox="0 0 20 20" fill="none" xmlns="http://www.w3.org/2000/svg">
<path d="M8.5 5.5H6C5.72386 5.5 5.5 5.72386 5.5 6V8.5C5.5 8.77614 5.72386 9 6 9H8.5C8.77614 9 9 8.77614 9 8.5V6C9 5.72386 8.77614 5.5 8.5 5.5Z" stroke="#FFFFFF" stroke-width="0.75" stroke-linecap="round" stroke-linejoin="round"/>
<path d="M14 5.5H11.5C11.2239 5.5 11 5.72386 11 6V8.5C11 8.77614 11.2239 9 11.5 9H14C14.2761 9 14.5 8.77614 14.5 8.5V6C14.5 5.72386 14.2761 5.5 14 5.5Z" stroke="#FFFFFF" stroke-width="0.75" stroke-linecap="round" stroke-linejoin="round"/>
<path d="M14 11H11.5C11.2239 11 11 11.2239 11 11.5V14C11 14.2761 11.2239 14.5 11.5 14.5H14C14.2761 14.5 14.5 14.2761 14.5 14V11.5C14.5 11.2239 14.2761 11 14 11Z" stroke="#FFFFFF" stroke-width="0.75" stroke-linecap="round" stroke-linejoin="round"/>
<path d="M8.5 11H6C5.72386 11 5.5 11.2239 5.5 11.5V14C5.5 14.2761 5.72386 14.5 6 14.5H8.5C8.77614 14.5 9 14.2761 9 14V11.5C9 11.2239 8.77614 11 8.5 11Z" stroke="#FFFFFF" stroke-width="0.75" stroke-linecap="round" stroke-linejoin="round"/>
</svg>
