<?xml version="1.0" encoding="UTF-8"?>
<svg version="1.1" xmlns="http://www.w3.org/2000/svg" width="64" height="64">
<path d="M0 0 C0.85428589 -0.00630432 1.70857178 -0.01260864 2.58874512 -0.019104 C3.51272095 -0.01505554 4.43669678 -0.01100708 5.38867188 -0.00683594 C6.80895691 -0.00970612 6.80895691 -0.00970612 8.25793457 -0.01263428 C10.26196559 -0.01399667 12.26600542 -0.0102965 14.27001953 -0.00195312 C17.34492741 0.00874559 20.41925101 -0.00184666 23.49414062 -0.01464844 C25.43815234 -0.01332685 27.38216368 -0.01076448 29.32617188 -0.00683594 C30.71213562 -0.01290863 30.71213562 -0.01290863 32.12609863 -0.019104 C33.40752747 -0.00964752 33.40752747 -0.00964752 34.71484375 0 C35.4682605 0.00159119 36.22167725 0.00318237 36.9979248 0.00482178 C38.85742188 0.25878906 38.85742188 0.25878906 40.85742188 2.25878906 C40.98242188 5.38378906 40.98242188 5.38378906 40.85742188 8.25878906 C39.86742187 8.58878906 38.87742188 8.91878906 37.85742188 9.25878906 C38.71352051 9.87995605 39.56961914 10.50112305 40.45166016 11.14111328 C45.64342474 15.30900727 49.90377237 19.22373611 50.87988281 26.06054688 C51.25712659 31.51383098 51.00409585 36.93137752 50.73242188 42.38378906 C50.68929245 44.28732082 50.65149057 46.1909811 50.61914062 48.09472656 C50.28626977 61.82994117 50.28626977 61.82994117 47.85742188 64.25878906 C45.9979248 64.51275635 45.9979248 64.51275635 43.71484375 64.51757812 C42.86055786 64.52388245 42.00627197 64.53018677 41.12609863 64.53668213 C40.2021228 64.53263367 39.27814697 64.52858521 38.32617188 64.52441406 C37.37931519 64.52632751 36.4324585 64.52824097 35.45690918 64.5302124 C33.45287816 64.53157479 31.44883833 64.52787462 29.44482422 64.51953125 C26.36991634 64.50883254 23.29559274 64.51942478 20.22070312 64.53222656 C18.27669141 64.53090498 16.33268007 64.5283426 14.38867188 64.52441406 C13.46469604 64.52846252 12.54072021 64.53251099 11.58874512 64.53668213 C10.30731628 64.52722565 10.30731628 64.52722565 9 64.51757812 C8.24658325 64.51598694 7.4931665 64.51439575 6.71691895 64.51275635 C4.85742188 64.25878906 4.85742188 64.25878906 2.85742188 62.25878906 C2.73242188 59.13378906 2.73242188 59.13378906 2.85742188 56.25878906 C1.74367188 56.30003906 0.62992188 56.34128906 -0.51757812 56.38378906 C-4.14257813 56.25878906 -4.14257813 56.25878906 -6.14257812 54.25878906 C-6.39654541 52.05761719 -6.39654541 52.05761719 -6.40136719 49.29003906 C-6.40767151 48.25556641 -6.41397583 47.22109375 -6.42047119 46.15527344 C-6.41642273 45.03443359 -6.41237427 43.91359375 -6.40820312 42.75878906 C-6.41011658 41.61216797 -6.41203003 40.46554688 -6.41400146 39.28417969 C-6.41536434 36.85644308 -6.4116608 34.42869922 -6.40332031 32.00097656 C-6.3926225 28.27424834 -6.40321244 24.54800221 -6.41601562 20.82128906 C-6.41469405 18.46712133 -6.4121317 16.11295389 -6.40820312 13.75878906 C-6.41225159 12.63794922 -6.41630005 11.51710938 -6.42047119 10.36230469 C-6.41416687 9.32783203 -6.40786255 8.29335937 -6.40136719 7.22753906 C-6.399776 6.31423828 -6.39818481 5.4009375 -6.39654541 4.45996094 C-5.91372412 0.27527765 -3.68547243 0.00778357 0 0 Z M-1.14257812 5.25878906 C-1.23553628 6.70168693 -1.26004325 8.14908691 -1.25610352 9.5949707 C-1.25602798 10.51584976 -1.25595245 11.43672882 -1.25587463 12.38551331 C-1.25071335 13.38654587 -1.24555206 14.38757843 -1.24023438 15.41894531 C-1.23881943 16.43854843 -1.23740448 17.45815155 -1.23594666 18.50865173 C-1.23032909 21.77956014 -1.21777363 25.05040119 -1.20507812 28.32128906 C-1.20006539 30.53287662 -1.19550209 32.74446524 -1.19140625 34.95605469 C-1.18035396 40.39032263 -1.16359876 45.82455104 -1.14257812 51.25878906 C0.17742188 51.58878906 1.49742188 51.91878906 2.85742188 52.25878906 C2.8950061 50.35818726 2.8950061 50.35818726 2.93334961 48.41918945 C3.02724184 43.73581127 3.12750622 39.05258776 3.22973633 34.36938477 C3.27315429 32.33914802 3.31482414 30.30887314 3.35473633 28.27856445 C3.41227334 25.36690755 3.47601465 22.45544393 3.54101562 19.54394531 C3.55772812 18.63040787 3.57444061 17.71687042 3.59165955 16.77565002 C3.74355017 10.37266077 3.74355017 10.37266077 4.85742188 9.25878906 C7.14730969 9.09990814 9.44185628 9.00740833 11.73632812 8.94238281 C12.76632179 8.91121117 12.76632179 8.91121117 13.81712341 8.87940979 C16.01795122 8.81384763 18.21890162 8.75499891 20.41992188 8.69628906 C21.90886702 8.65311014 23.39779961 8.60949606 24.88671875 8.56542969 C28.54348741 8.45815976 32.20039506 8.35691134 35.85742188 8.25878906 C35.36242188 6.27878906 35.36242188 6.27878906 34.85742188 4.25878906 C29.89119838 4.23413809 24.92501021 4.21595258 19.95874023 4.20385742 C18.26797872 4.19881717 16.57722158 4.19198501 14.88647461 4.18334961 C12.46141481 4.1712705 10.03641244 4.16555783 7.61132812 4.16113281 C6.85090714 4.15597153 6.09048615 4.15081024 5.30702209 4.14549255 C1.79006212 3.81870448 1.79006212 3.81870448 -1.14257812 5.25878906 Z M7.85742188 13.25878906 C7.75928201 14.69619259 7.72943907 16.13835233 7.72802734 17.57910156 C7.72487518 18.49675293 7.72172302 19.4144043 7.71847534 20.35986328 C7.72049957 21.35775879 7.7225238 22.3556543 7.72460938 23.38378906 C7.72365265 24.40102051 7.72269592 25.41825195 7.72171021 26.46630859 C7.72102826 28.62174542 7.72288353 30.77718428 7.72705078 32.93261719 C7.73239882 36.24451277 7.72710625 39.55627273 7.72070312 42.86816406 C7.7213639 44.95670603 7.72264506 47.04524791 7.72460938 49.13378906 C7.72258514 50.13168457 7.72056091 51.12958008 7.71847534 52.15771484 C7.7216275 53.07536621 7.72477966 53.99301758 7.72802734 54.93847656 C7.72882294 55.7504248 7.72961853 56.56237305 7.73043823 57.39892578 C7.65377998 59.27424659 7.65377998 59.27424659 8.85742188 60.25878906 C11.43931634 60.35970382 13.99388688 60.39850405 16.57617188 60.39160156 C17.7357843 60.39303665 17.7357843 60.39303665 18.91882324 60.39450073 C20.55639731 60.39518247 22.19397406 60.39332863 23.83154297 60.38916016 C26.34674108 60.38381177 28.86176061 60.38910533 31.37695312 60.39550781 C32.9641931 60.39484703 34.55143297 60.39356586 36.13867188 60.39160156 C36.89595581 60.39362579 37.65323975 60.39565002 38.43347168 60.3977356 C41.93757751 60.7033259 41.93757751 60.7033259 44.85742188 59.25878906 C44.9458993 56.7378483 44.97269489 54.24448013 44.95507812 51.72363281 C44.95366318 50.97038223 44.95224823 50.21713165 44.95079041 49.4410553 C44.94517563 47.02609346 44.9326207 44.61122305 44.91992188 42.19628906 C44.91490877 40.56282686 44.91034554 38.9293632 44.90625 37.29589844 C44.89520141 33.28349321 44.87792694 29.27115666 44.85742188 25.25878906 C44.07496094 25.19820312 43.2925 25.13761719 42.48632812 25.07519531 C41.47441406 24.99140625 40.4625 24.90761719 39.41992188 24.82128906 C37.90591797 24.69947266 37.90591797 24.69947266 36.36132812 24.57519531 C33.85742188 24.25878906 33.85742188 24.25878906 32.85742188 23.25878906 C32.62378307 21.4098696 32.44438553 19.55390875 32.29492188 17.69628906 C32.16923828 16.17841797 32.16923828 16.17841797 32.04101562 14.62988281 C31.98042969 13.84742188 31.91984375 13.06496094 31.85742188 12.25878906 C28.04493761 12.2299167 24.23248118 12.21203415 20.41992188 12.19628906 C19.33130859 12.18791016 18.24269531 12.17953125 17.12109375 12.17089844 C15.56938477 12.16606445 15.56938477 12.16606445 13.98632812 12.16113281 C13.02799072 12.155896 12.06965332 12.15065918 11.08227539 12.14526367 C8.88456848 12.00825776 8.88456848 12.00825776 7.85742188 13.25878906 Z M36.85742188 17.25878906 C37.18742187 18.57878906 37.51742187 19.89878906 37.85742188 21.25878906 C38.84742188 20.92878906 39.83742187 20.59878906 40.85742188 20.25878906 C39.53742187 19.26878906 38.21742187 18.27878906 36.85742188 17.25878906 Z " fill="#ffffff" transform="translate(10.142578125,-0.2587890625)"/>
<path d="M0 0 C3.5625 0.3125 3.5625 0.3125 5.375 1.5625 C6.63261437 3.41582645 7.64659002 5.2693162 8.5625 7.3125 C9.8825 6.9825 11.2025 6.6525 12.5625 6.3125 C13.1875 8.6875 13.1875 8.6875 13.5625 11.3125 C12.9025 11.9725 12.2425 12.6325 11.5625 13.3125 C12.8825 13.6425 14.2025 13.9725 15.5625 14.3125 C15.5625 15.6325 15.5625 16.9525 15.5625 18.3125 C13.5825 19.3025 13.5825 19.3025 11.5625 20.3125 C12.2225 20.6425 12.8825 20.9725 13.5625 21.3125 C13.2325 22.9625 12.9025 24.6125 12.5625 26.3125 C11.799375 26.10625 11.03625 25.9 10.25 25.6875 C7.34364056 24.97858797 7.34364056 24.97858797 4.5625 27.3125 C2.44140625 27.578125 2.44140625 27.578125 0.125 27.5625 C-0.63683594 27.56765625 -1.39867187 27.5728125 -2.18359375 27.578125 C-4.65652705 27.28668745 -6.24556827 26.44768991 -8.4375 25.3125 C-10.63497131 25.61055007 -10.63497131 25.61055007 -12.4375 26.3125 C-13.0625 23.9375 -13.0625 23.9375 -13.4375 21.3125 C-12.7775 20.6525 -12.1175 19.9925 -11.4375 19.3125 C-12.7575 18.9825 -14.0775 18.6525 -15.4375 18.3125 C-15.4375 16.9925 -15.4375 15.6725 -15.4375 14.3125 C-14.1175 13.6525 -12.7975 12.9925 -11.4375 12.3125 C-12.0975 11.9825 -12.7575 11.6525 -13.4375 11.3125 C-13.1075 9.6625 -12.7775 8.0125 -12.4375 6.3125 C-10.7875 6.6425 -9.1375 6.9725 -7.4375 7.3125 C-7.14875 6.52875 -6.86 5.745 -6.5625 4.9375 C-4.90721497 1.07516826 -4.26275964 0.3875236 0 0 Z M-1.4375 5.3125 C-1.4375 6.9625 -1.4375 8.6125 -1.4375 10.3125 C-2.076875 10.51875 -2.71625 10.725 -3.375 10.9375 C-5.72877163 12.19928741 -5.72877163 12.19928741 -6.375 15.1875 C-6.64824153 18.26178988 -6.64824153 18.26178988 -5.4375 20.6875 C-3.40534402 22.62334119 -3.40534402 22.62334119 0.0625 22.8125 C3.53034402 22.62334119 3.53034402 22.62334119 5.5625 20.6875 C6.92562615 17.4500754 6.64312449 15.62641511 5.5625 12.3125 C3.61086882 10.87612302 3.61086882 10.87612302 1.5625 10.3125 C1.5625 8.6625 1.5625 7.0125 1.5625 5.3125 C0.5725 5.3125 -0.4175 5.3125 -1.4375 5.3125 Z " fill="#ffffff" transform="translate(36.4375,23.6875)"/>
<path d="M0 0 C1.65 0 3.3 0 5 0 C5 1.32 5 2.64 5 4 C3.35 4 1.7 4 0 4 C0 2.68 0 1.36 0 0 Z " fill="#ffffff" transform="translate(21,16)"/>
</svg>
