<svg width="28" height="28" viewBox="0 0 28 28" fill="none" xmlns="http://www.w3.org/2000/svg">
<path d="M6.5 16.5L9.83333 9.83334L13.1667 16.5" stroke="#2B2C2B" stroke-width="1.25" stroke-linecap="round" stroke-linejoin="round"/>
<path d="M7.33398 14.8333H12.334" stroke="#2B2C2B" stroke-width="1.25" stroke-linecap="round" stroke-linejoin="round"/>
<path d="M16.5 13.1667H20.25C20.692 13.1667 21.116 13.3423 21.4285 13.6548C21.7411 13.9674 21.9167 14.3913 21.9167 14.8333C21.9167 15.2754 21.7411 15.6993 21.4285 16.0119C21.116 16.3244 20.692 16.5 20.25 16.5H16.5V9.83334H19.8333C20.2754 9.83334 20.6993 10.0089 21.0118 10.3215C21.3244 10.6341 21.5 11.058 21.5 11.5C21.5 11.942 21.3244 12.366 21.0118 12.6785C20.6993 12.9911 20.2754 13.1667 19.8333 13.1667" stroke="#2B2C2B" stroke-width="1.25" stroke-linecap="round" stroke-linejoin="round"/>
</svg>
