<svg width="28" height="28" viewBox="0 0 28 28" fill="none" xmlns="http://www.w3.org/2000/svg">
<path d="M9.83398 16.5C11.2147 16.5 12.334 15.3807 12.334 14C12.334 12.6193 11.2147 11.5 9.83398 11.5C8.45327 11.5 7.33398 12.6193 7.33398 14C7.33398 15.3807 8.45327 16.5 9.83398 16.5Z" stroke="#FFFFFF" stroke-width="1.25" stroke-linecap="round" stroke-linejoin="round"/>
<path d="M12.334 11.5V16.5" stroke="#FFFFFF" stroke-width="1.25" stroke-linecap="round" stroke-linejoin="round"/>
<path d="M18.166 16.5C19.5467 16.5 20.666 15.3807 20.666 14C20.666 12.6193 19.5467 11.5 18.166 11.5C16.7853 11.5 15.666 12.6193 15.666 14C15.666 15.3807 16.7853 16.5 18.166 16.5Z" stroke="#FFFFFF" stroke-width="1.25" stroke-linecap="round" stroke-linejoin="round"/>
<path d="M15.666 9.83334V16.5" stroke="#FFFFFF" stroke-width="1.25" stroke-linecap="round" stroke-linejoin="round"/>
</svg>
