<svg width="29" height="28" viewBox="0 0 29 28" fill="none" xmlns="http://www.w3.org/2000/svg">
<path d="M7.50065 16.3333L9.25065 12.95C9.4409 12.5722 9.73029 12.2531 10.0879 12.0271C10.4454 11.801 10.8577 11.6765 11.2807 11.6667H23.834M23.834 11.6667C24.1904 11.666 24.5423 11.7471 24.8626 11.9036C25.1828 12.0601 25.463 12.2879 25.6815 12.5695C25.9 12.8511 26.0511 13.179 26.1232 13.5281C26.1953 13.8772 26.1864 14.2382 26.0973 14.5833L24.3006 21.5833C24.1707 22.0868 23.8762 22.5324 23.4641 22.8495C23.0519 23.1665 22.5456 23.3368 22.0257 23.3333H5.16732C4.54848 23.3333 3.95499 23.0875 3.5174 22.6499C3.07982 22.2123 2.83398 21.6188 2.83398 21V5.83332C2.83398 5.21448 3.07982 4.62099 3.5174 4.18341C3.95499 3.74582 4.54848 3.49999 5.16732 3.49999H9.71732C10.1076 3.49616 10.4925 3.59028 10.837 3.77371C11.1814 3.95715 11.4744 4.22405 11.689 4.54999L12.634 5.94999C12.8464 6.27261 13.1357 6.53743 13.4757 6.72069C13.8158 6.90396 14.196 6.99993 14.5823 6.99999H21.5007C22.1195 6.99999 22.713 7.24582 23.1506 7.68341C23.5882 8.12099 23.834 8.71448 23.834 9.33332V11.6667Z" stroke="#ffffff" stroke-width="1.75" stroke-linecap="round" stroke-linejoin="round"/>
</svg>
