<svg width="29" height="28" viewBox="0 0 29 28" fill="none" xmlns="http://www.w3.org/2000/svg">
<path d="M12.166 15.1663C12.667 15.8361 13.3063 16.3903 14.0403 16.7914C14.7744 17.1924 15.5861 17.4309 16.4204 17.4907C17.2548 17.5504 18.0922 17.43 18.8759 17.1377C19.6596 16.8453 20.3713 16.3879 20.9627 15.7963L24.4627 12.2963C25.5253 11.1961 26.1132 9.72259 26.0999 8.19311C26.0867 6.66363 25.4732 5.20055 24.3916 4.11901C23.3101 3.03746 21.847 2.42397 20.3175 2.41068C18.788 2.39739 17.3145 2.98536 16.2143 4.04795L14.2077 6.04295" stroke="#ffffff" stroke-width="1.75" stroke-linecap="round" stroke-linejoin="round"/>
<path d="M16.8326 12.8332C16.3316 12.1634 15.6923 11.6092 14.9583 11.2082C14.2242 10.8071 13.4125 10.5686 12.5782 10.5089C11.7438 10.4491 10.9064 10.5695 10.1227 10.8618C9.33897 11.1542 8.62729 11.6117 8.03592 12.2032L4.53592 15.7032C3.47333 16.8034 2.88537 18.2769 2.89866 19.8064C2.91195 21.3359 3.52543 22.799 4.60698 23.8805C5.68853 24.9621 7.1516 25.5756 8.68108 25.5888C10.2106 25.6021 11.6841 25.0142 12.7843 23.9516L14.7793 21.9566" stroke="#ffffff" stroke-width="1.75" stroke-linecap="round" stroke-linejoin="round"/>
</svg>
