<svg width="41" height="40" viewBox="0 0 41 40" fill="none" xmlns="http://www.w3.org/2000/svg">
<path d="M7.16495 24.8323C5.92669 23.5672 4.99257 22.0369 4.43334 20.3572C3.87412 18.6776 3.70446 16.8928 3.93722 15.1379C4.16998 13.3829 4.79905 11.704 5.77678 10.2282C6.75451 8.75247 8.05526 7.51854 9.58051 6.61994C11.1058 5.72133 12.8155 5.18161 14.5802 5.04165C16.345 4.90169 18.1184 5.16516 19.7662 5.81212C21.4141 6.45907 22.893 7.47254 24.0912 8.77575C25.2893 10.079 26.1752 11.6377 26.6816 13.334H29.665C31.2741 13.3338 32.8407 13.8512 34.1333 14.8098C35.4258 15.7683 36.3758 17.1171 36.8429 18.657C37.31 20.1969 37.2694 21.8462 36.7272 23.3613C36.1849 24.8764 35.1697 26.1769 33.8316 27.0707" stroke="#ffffff" stroke-width="2.5" stroke-linecap="round" stroke-linejoin="round"/>
<path d="M20.498 20.0007V35.0007" stroke="#ffffff" stroke-width="2.5" stroke-linecap="round" stroke-linejoin="round"/>
<path d="M27.1654 26.6674L20.4987 20.0007L13.832 26.6674" stroke="#ffffff" stroke-width="2.5" stroke-linecap="round" stroke-linejoin="round"/>
</svg>
